<svg width="1070" height="896" viewBox="0 0 1070 896" fill="none" xmlns="http://www.w3.org/2000/svg">
<path d="M467.437 594.134C473.116 594.844 481.491 621.52 484.107 626.148C493.198 642.234 496.636 661.293 505.797 677.579C515.051 694.031 528.184 700.259 543.968 709.973C561.117 720.526 587.271 728.144 607.238 728.821C619.583 729.24 627.241 726.841 638.684 721.433C646.763 717.616 652.162 709.364 660.374 705.805C672.344 700.618 681.054 694.325 691.157 686.199C704.367 675.573 718.42 663.032 724.876 646.891C730.239 633.484 740.22 621.883 740.22 606.826V578.79M187.833 694.723C189.581 712.198 205.749 733.419 216.816 745.87C238.211 769.939 262.037 791.77 281.981 817.097C299.29 839.076 308.199 862.003 320.815 886.335C322.905 890.366 328.648 910.578 332.75 904.426M472.551 595.839C469.128 596.267 464.402 599.224 461.375 600.954C454.716 604.759 444.974 605.039 437.506 606.069C415.18 609.148 392.17 614.23 370.257 619.708C335.111 628.494 300.674 635.775 267.111 649.449C250.17 656.351 230.801 661.397 215.869 672.181C203.368 681.21 190.639 688.465 179.309 698.986C167.458 709.99 161.919 728.397 151.651 741.135C129.911 768.104 106.976 794.018 85.5392 821.265C67.0604 844.752 56.3779 871.454 43.8639 898.27C34.2985 918.767 25.5465 939.582 18.3851 961.067C13.3075 976.3 7.96074 991.437 1.99913 1006.34C-1.85847 1015.99 0.507396 1010.34 3.70403 1005.02M743.63 578.79C748.179 579.295 752.461 584.265 756.417 586.462C763.572 590.437 770.932 595.916 777.728 600.859C787.935 608.282 799.42 614.043 810.595 619.897C829.912 630.016 849.072 642.326 869.793 649.449C895.535 658.298 921.261 670.148 947.271 677.579C960.782 681.44 973.142 690.127 986.578 693.113C991.078 694.113 996.628 699.818 1001.07 701.922C1007.56 704.998 1013.27 710.335 1020.2 712.151C1025.97 713.661 1028.79 718.345 1030.43 723.706C1032.14 729.309 1036.44 733.936 1038.58 739.429C1042.77 750.222 1043.89 762.372 1047.1 773.527C1053.84 796.914 1058.47 822.303 1061.12 846.459C1063.33 866.558 1067.56 886.204 1067.56 906.51V945.343C1067.56 947.512 1064.51 943.142 1063.87 942.407C1055.85 933.182 1046.33 925.75 1036.87 918.065M1033.46 716.887C1028.86 717.911 1022.74 725.976 1019.45 729.2C1008.47 739.936 996.283 749.461 984.021 758.657C969.821 769.307 956.13 779.61 952.954 797.396C945.743 837.775 941.399 879.664 941.399 920.717C941.399 936.02 939.253 952.756 944.714 967.318C945.946 970.605 951.975 979.268 948.218 981.147M423.981 182.718C439.863 182.718 456.34 182.066 472.075 184.072C485.698 185.809 500.88 189.531 511.781 200.116C521.635 209.684 523.525 222.764 523.525 237.624C523.525 242.654 523.767 247.704 522.966 252.669C522.094 258.074 519.582 263.268 519.113 268.642C518.654 273.917 515.451 279.535 511.222 281.834C492.7 291.902 469.848 293.071 449.954 297.949C438.39 300.784 430.137 301.569 419.569 297.022C408.487 292.253 408.322 272.686 408.322 260.37C408.322 243.542 418.171 229.817 422.614 214.52C424.841 206.855 430.6 192.649 437.403 190.419M513.459 203.254C513.459 197.003 558.064 201.97 563.107 201.97C568.32 201.97 575.903 202.287 580.567 204.823C583.04 206.167 585.278 210.955 587.278 210.955M616.359 205.821C611.817 205.821 593.581 191.562 591.69 201.329C590.659 206.654 586.895 213.268 585.041 218.585C582.267 226.545 580.724 235.177 579.387 243.613C577.303 256.763 578.549 268.463 586.16 279.623C600.955 301.318 631.296 295.496 651.715 294.455C677.43 293.143 700.363 286.513 721.495 268.999C724.992 266.101 729.325 258.749 729.325 253.596C729.325 239.863 707.396 232.033 698.504 226.643C683.518 217.557 669.245 212.81 652.771 209.957C635.221 206.917 581.832 207.105 599.582 207.105M643.202 231.491C639.533 227.748 639.847 233.069 639.847 235.984C639.847 238.58 643.685 243.633 645.439 241.118C646.917 238.997 646.045 235.704 643.202 235.342C636.106 234.437 648.94 231.408 651.031 230.208M464.246 216.089C458.979 216.845 453.792 224.751 451.073 229.21C448.908 232.758 467.035 241.229 469.839 241.688C475.205 242.568 483.07 242.75 479.283 234.058C477.588 230.168 474.617 228.162 472.075 225.074C470.434 223.079 467.239 222.958 466.483 221.223M548.132 289.25C544.468 289.25 542.45 290.515 538.935 291.817C528.358 295.732 517.643 301.813 508.488 309.001C497.979 317.253 491.417 323.577 490.033 338.665C488.589 354.405 512.345 349.638 520.046 347.649C527.676 345.679 533.483 342.357 536.947 334.173C539.737 327.582 538.331 337.68 540.427 341.802C547.214 355.155 578.225 371.9 584.793 349.29C588.592 336.21 585.205 326.732 578.579 316.203C577.24 314.075 576.281 311.666 574.975 309.501C574.611 308.898 571.744 306.697 571.744 306.577C571.744 305.508 574.4 305.962 574.913 305.864C576.143 305.629 577.321 304.14 578.331 303.368M447.469 373.962C454.79 376.062 462.031 382.373 469.217 385.442C479.703 389.92 490.644 391.458 501.404 394.498C512.606 397.662 525.518 395.781 536.947 395.781C553.415 395.781 569.729 394.716 586.16 393.5C646.241 389.051 704.485 376.562 762.257 356.991C786.54 348.765 809.817 338.464 833.715 329.181L833.92 329.102C839.275 327.022 844.391 325.035 849.374 321.908C849.916 321.568 855.615 318.184 852.357 320.054M512.341 359.843C497.354 359.843 482.552 360.899 467.602 362.125C464.423 362.385 461.085 362.473 457.739 362.676M457.739 362.676C453.075 362.958 448.396 363.465 444.114 364.977C437.195 367.42 450.691 364.756 451.819 364.407C453.785 363.797 455.76 363.225 457.739 362.676ZM457.739 362.676C468.686 359.639 479.781 357.335 490.592 353.711C500.608 350.353 485.043 353.301 482.887 353.711C464.401 357.224 446.129 361.721 427.909 366.659M427.909 366.659C425.273 367.373 422.638 368.096 420.004 368.828C414.957 370.228 409.93 371.267 404.863 372.345M427.909 366.659C428.553 364.002 428.807 361.481 428.393 359.344C427.824 356.404 383.306 374.983 379.615 380.807C379.429 381.101 389.486 377.537 390.613 377.099C400.267 373.347 409.911 369.813 419.259 365.12C422.156 363.665 425.456 362.69 420.315 365.12C415.177 367.547 410.034 370.003 404.863 372.345M427.909 366.659C426.266 373.441 422.085 381.106 420.004 385.513C415.556 394.938 408.322 406.067 408.322 417.316C408.322 420.796 418.207 412.247 419.134 411.611C434.486 401.094 449.98 391.341 464.867 379.951C466.506 378.698 483.383 365.883 485.249 367.829C488.666 371.394 483.319 388.351 482.39 391.931C480.14 400.598 477.483 409.299 475.419 418.058M404.863 372.345C403.905 372.549 402.946 372.754 401.984 372.963C399.529 373.498 401.622 373.798 402.854 373.249C403.524 372.95 404.194 372.648 404.863 372.345ZM475.419 418.058C475.12 419.331 474.833 420.604 474.561 421.879C473.509 426.816 474.574 420.256 475.419 418.058ZM475.419 418.058C475.423 418.048 475.427 418.039 475.431 418.029C478.652 409.791 481.743 400.689 486.616 393.5C491.27 386.632 491.477 412.965 491.649 414.606C493.367 431.042 493.853 447.37 497.241 463.522C497.357 464.073 500.541 475.582 501.094 473.363C503.527 463.59 503.393 432.823 503.393 442.986C503.393 458.436 507.961 473.57 512.465 487.909C513.992 492.77 520.26 520.14 528.558 520.14C534.95 520.14 541.916 496.191 543.534 491.189C549.565 472.54 551.347 452.085 551.487 432.29C551.507 429.515 549.593 419.868 550.866 423.306C555.702 436.365 560.665 447.286 568.264 458.674C575.193 469.057 582.219 479.12 589.764 488.908C594.579 495.154 593.581 482.839 593.989 479.21C595.463 466.105 596.117 452.495 596.226 439.278C596.257 435.495 593.817 427.358 597.842 431.292C608.5 441.711 618.987 451.52 630.899 460.1C633.173 461.738 659.541 483.322 663.21 479.638C666.997 475.835 664.102 459.994 663.21 455.536C662.67 452.833 661.741 447.719 660.88 443.452M660.88 443.452C659.819 438.191 658.861 434.218 658.861 437.638C658.861 439.433 659.642 441.42 660.88 443.452ZM660.88 443.452C664.645 449.631 672.636 456.234 675.762 459.173C685.409 468.244 697.695 476.747 710.062 479.638C715.474 480.903 718.946 482.367 719.32 475.716C719.958 464.375 719.922 456.489 715.344 445.981C712.728 439.978 708.639 435.494 705.836 429.866C703.134 424.439 701.247 418.113 699.126 412.182C694.022 397.913 687.623 384.562 678.993 372.678C674.934 367.088 668.725 357.655 662.465 354.994C660.924 354.339 660.481 357.142 659.109 354.709C656.984 350.94 653.193 347.059 649.913 344.726C633.932 333.361 620.87 350.584 615.489 367.259C614.992 368.796 611.917 378.112 611.885 377.812C611.371 373.093 606.681 368.875 603.496 366.332C596.325 360.607 590.797 365.804 583.488 367.401C578.13 368.573 573.805 364.297 569.755 361.055C559.854 353.128 548.097 346.763 537.195 340.875C535.998 340.229 530.66 337.093 526.74 335.888M526.74 335.888C524.299 335.138 522.407 335.138 522.407 336.954C522.407 338.432 521.471 347.391 522.966 348.077C523.04 348.111 525.271 340.789 526.74 335.888ZM526.74 335.888C527.422 333.613 527.939 331.859 527.999 331.606M552.606 117.258C553.065 118.38 556.095 126.566 557.949 124.674C560.775 121.792 556.039 110.621 554.718 108.416C549.249 99.2867 537.513 95.1015 526.779 93.2241M526.779 93.2241C522.169 92.4178 517.745 92.0372 514.08 91.8734C486.089 90.6219 451.76 95.5257 428.952 116.189C416.816 127.184 410.311 151.567 424.851 163.608C430.506 168.291 438.546 167.651 445.108 167.03C461.093 165.517 476.332 158.154 490.468 149.846C508.494 139.25 530.327 124.913 527.751 98.0058C527.589 96.3185 527.259 94.7263 526.779 93.2241ZM526.779 93.2241C520.316 72.9988 486.704 69.0789 472.013 68.8414C450.901 68.5002 424.575 73.8326 404.641 87.2163M404.641 87.2163C387.281 98.872 374.768 116.634 374.768 142.073C374.768 153.291 386.987 139.879 389.992 136.868C401.816 125.022 416.451 109.781 406.458 90.3047C405.903 89.2223 405.296 88.1937 404.641 87.2163ZM404.641 87.2163C392.684 69.3684 364.875 68.6447 347.863 70.7667C314.744 74.8977 276.139 97.696 259.69 132.09C252.592 146.93 249.558 172.054 259.261 186.933M259.261 186.933C259.708 187.618 260.182 188.282 260.684 188.921C264.001 193.151 267.862 191.438 271.62 188.85C273.266 187.717 282.231 180.431 276.342 179.152C272.576 178.335 267.317 181.934 264.226 183.787C262.563 184.784 260.907 185.835 259.261 186.933ZM259.261 186.933C247.254 194.942 235.779 205.471 225.825 216.16C209.529 233.66 194.262 265.389 204.387 291.531C211.486 309.861 224.168 313.184 240.365 309.429C250.285 307.129 259.929 302.92 269.038 297.688M269.038 297.688C272.247 295.845 275.39 293.875 278.455 291.817L278.501 291.786C289.918 284.12 305.095 273.931 310.891 259.586C313.944 252.029 317.91 234.184 305.733 236.911C298.164 238.606 291.892 246.376 286.409 252.028C278.252 260.434 267.916 270.592 267.022 284.116C266.694 289.081 267.463 293.607 269.038 297.688ZM269.038 297.688C274.064 310.713 287.292 319.191 299.196 322.873M299.196 322.873C300.185 323.178 301.164 323.451 302.13 323.691C322.347 328.707 341.205 315.714 357.37 303.226C366.655 296.052 377.31 287.98 382.473 276.129C384.736 270.935 388.164 259.648 381.23 257.162C361.019 249.913 339.197 268.209 325.12 282.404C314.932 292.679 303.995 307.031 299.196 322.873ZM299.196 322.873C296.617 331.382 295.81 340.322 297.842 349.29C299.698 357.482 302.403 363.694 310.021 363.694C323.392 363.694 337.816 356.53 349.416 349.29C357.845 344.029 365.966 336.105 373.774 329.609C390.286 315.871 405.088 300.662 419.507 284.116M494.445 85.1706C494.445 95.1527 498.855 98.8302 507.059 101.856C542.242 114.834 584.757 107.199 618.223 91.7308C628.833 86.8267 649.751 72.5616 644.693 55.3645C638.912 35.7074 612.302 38.1617 598.463 37.6805M558.198 56.9332C553.99 68.0989 549.639 79.0638 553.103 91.3029C555.759 100.688 563.073 108.062 571.247 110.841C573.054 111.455 574.898 111.98 576.77 112.43M576.77 112.43C587.052 114.903 598.156 115.13 608.343 115.618C618.052 116.084 627.906 116.472 637.671 115.799M576.77 112.43C579.157 100.518 583.928 89.7786 590.931 80.2847M576.77 112.43C575.179 120.371 574.649 128.833 575.224 137.795C577.864 178.946 618.54 176.702 644.569 166.745C655.781 162.456 667.053 156.8 677.73 150M637.671 115.799C642.613 115.458 647.532 114.846 652.398 113.836C665.194 111.178 680.843 106.698 692.295 97.4662M637.671 115.799C636.255 112.033 635.314 108.131 634.972 104.225M637.671 115.799C641.829 126.859 650.085 136.749 659.296 142.144C665.138 145.566 671.318 148.143 677.73 150M692.295 97.4662C695.323 95.0252 698.058 92.252 700.368 89.0924C706.769 80.3411 706.542 70.014 702.383 61.6155M692.295 97.4662C680.044 103.626 666.56 105.641 653.268 105.707C647.136 105.737 640.989 105.271 634.972 104.225M692.295 97.4662C693.128 97.0475 693.955 96.6095 694.776 96.1517C700.976 92.6947 711.18 86.2949 711.18 76.899C711.18 70.1709 707.267 64.8105 702.383 61.6155M702.383 61.6155C699.291 55.3707 694.025 50.1923 687.692 47.5208C661.484 36.4633 625.686 47.4166 604.304 65.9178C599.204 70.331 594.738 75.1238 590.931 80.2847M702.383 61.6155C699.847 59.9567 697.05 58.8816 694.403 58.5019C675.395 55.7753 658.06 63.9905 643.948 78.4677C636.64 85.9642 634.174 95.1065 634.972 104.225M590.931 80.2847C586.817 75.4526 583.213 69.8346 580.257 63.3508C579.755 62.2494 576.824 51.9526 574.874 42.489M590.931 80.2847C602.559 93.9412 618.266 101.32 634.972 104.225M677.73 150C686.959 144.123 695.744 137.391 703.662 129.951C717.438 117.005 728.558 100.413 723.856 79.0382C714.252 35.3749 675.403 14.8843 640.281 7.16131C601.464 -1.37444 550.444 -1.28084 515.447 22.6348C499.992 33.1969 512.278 53.3045 525.389 56.648C541.416 60.7351 563.702 57.9345 574.874 42.489M677.73 150C700.834 156.695 726.942 154.059 751.081 148.057M574.874 42.489C575.034 42.2674 575.192 42.0431 575.348 41.8162C577.106 39.254 580.95 26.2714 574.416 26.2714C572.176 26.2714 573.135 34.0488 574.874 42.489ZM751.081 148.057C762.177 145.297 772.858 141.826 782.638 138.223C799.542 131.995 818.654 123.762 831.043 108.416C834.941 103.588 840.704 93.9456 835.579 87.7376C831.226 82.4641 824.265 81.6964 818.305 81.6052C801.021 81.3408 782.712 86.3994 767.85 96.7222C752.655 107.276 750.188 128.379 751.081 148.057ZM751.081 148.057C751.343 153.845 751.896 159.511 752.502 164.749C756.478 199.148 777.751 230.336 805.381 243.756C809.641 245.825 814.01 247.594 818.456 249.028M818.456 249.028C826.737 251.697 835.286 253.201 843.906 253.311C844.955 253.324 867.152 252.272 864.908 248.961C862.826 245.889 850.44 247.036 848.069 247.036C838.171 247.036 828.284 247.726 818.456 249.028ZM818.456 249.028C804.55 250.87 790.762 253.939 777.232 258.017C767.664 260.901 697.617 282.876 728.455 305.65C732.993 309.002 738.131 311.469 743.482 313.353M743.482 313.353C750.579 315.853 758.051 317.329 764.991 318.485C778.838 320.793 792.972 321.592 807.047 321.195M743.482 313.353C758.207 314.284 772.902 315.707 787.547 317.843C794.066 318.794 800.568 319.916 807.047 321.195M743.482 313.353C701.926 310.728 660.139 312.033 618.596 312.353M807.047 321.195C814.856 320.975 822.646 320.387 830.36 319.483C833.291 319.14 836.355 318.792 839.469 318.354M807.047 321.195C815.973 322.957 824.857 325.018 833.681 327.34M839.469 318.354C849.776 316.907 860.627 314.487 869.009 308.074C871.558 306.125 870.831 303.814 867.891 303.44C857.681 302.138 846.805 309.312 839.469 318.354ZM839.469 318.354C837.375 320.935 835.569 323.668 834.15 326.4C833.999 326.692 833.842 327.006 833.681 327.34M833.681 327.34C830.739 333.461 826.636 346.2 836.077 344.156C839.008 343.521 855.385 339.233 848.628 332.889C845.282 329.747 838.401 328.593 834.71 327.612C834.367 327.521 834.024 327.431 833.681 327.34ZM378.124 321.337C373.769 331.332 370.864 340.496 367.809 351.143C359.072 381.594 347.925 409.189 347.925 441.988C347.925 487.241 378.013 530.68 408.385 556.149C452.765 593.367 510.87 597.548 563.666 599.575C611.932 601.428 661.27 600.676 708.571 588.309C734.291 581.583 763.717 575.141 787.237 561.07C806.073 549.799 822.37 534.119 835.828 515.433C844.623 503.222 852.723 491.676 859.627 477.855C866.326 464.442 871.796 450.38 878.144 436.782C893.155 404.627 908.501 358.244 886.532 325.83C869.669 300.949 850.598 278.247 831.106 255.878C823.963 247.682 818.682 244.855 809.703 240.048L809.171 239.763C806.038 238.085 783.477 225.288 781.893 228.924M840.053 257.162C840.053 234.117 847.546 218.077 860.683 200.972C864.845 195.553 872.83 193.291 878.827 191.702C891.034 188.47 903.529 185.828 916.11 186.568C943.955 188.207 976.002 217.586 980.981 249.461C985.724 279.823 987.022 311.145 984.088 341.874C982.291 360.688 979.298 381.983 967.311 396.067C956.278 409.029 936.262 404.766 921.951 404.766C914.924 404.766 906.935 406.205 900.451 402.484C896.182 400.035 892.384 395.624 888.645 392.216C881.296 385.519 886.906 358.122 888.148 349.575M881.437 296.951C881.437 293.442 884.647 288.715 885.911 285.399C888.913 277.524 891.002 269.56 894.237 261.796C897.852 253.123 905.519 250.248 913.127 248.462C917.135 247.521 918.207 246.352 921.826 248.89C928.388 253.492 933.735 258.04 938.541 264.934C946.993 277.057 950.656 292.516 953.268 307.504C954.533 314.763 957.37 333.875 951.341 338.665C941.589 346.413 927.902 348.291 916.358 348.291C913.608 348.291 906.911 348.704 905.111 346.295C903.393 343.994 904.021 337.027 903.744 334.173C903.074 327.247 899.82 318.934 902.688 312.353M904.925 305.935C903.724 305.935 910.196 304.842 911.014 304.652C922.021 302.097 933.025 299.557 944.071 297.236C949.317 296.134 959.445 296.696 963.955 292.815C964.926 291.98 964.935 291.423 964.204 293.1" stroke="currentColor" stroke-opacity="0.4" stroke-width="3" stroke-linecap="round"/>
</svg>
